<svg xmlns="http://www.w3.org/2000/svg" version="1.1" xmlns:xlink="http://www.w3.org/1999/xlink" xmlns:svgjs="http://svgjs.dev/svgjs" viewBox="0 0 5.744626158638862 6.006676074554036"><g transform="matrix(1,0,0,1,0.4894914850811505,3.0914220894728865)"><rect width="6.006676074554036" height="6.006676074554036" x="-0.6205164430387375" y="-3.0914220894728865" fill="#ffffff"></rect><g><path d=" M 0.76875 0.14549999999999985 Q 0.8415 0.15749999999999986 0.8835000000000001 0.17849999999999988 Q 0.897 0.18299999999999994 0.90075 0.18974999999999986 Q 0.9045 0.1964999999999999 0.906 0.21299999999999986 L 0.924 0.4079999999999999 Q 0.924 0.41249999999999987 0.9165 0.4139999999999999 Q 0.909 0.41549999999999987 0.9075 0.40949999999999986 Q 0.864 0.29249999999999987 0.77625 0.23099999999999987 Q 0.6885 0.16949999999999987 0.5700000000000001 0.16949999999999987 Q 0.41400000000000003 0.16949999999999987 0.3255 0.2789999999999999 Q 0.23700000000000002 0.38849999999999985 0.23700000000000002 0.573 Q 0.23700000000000002 0.7109999999999999 0.28575 0.8264999999999999 Q 0.3345 0.942 0.42075 1.0094999999999998 Q 0.507 1.077 0.6135 1.077 Q 0.8160000000000001 1.077 0.921 0.825 Q 0.9225 0.819 0.93075 0.8204999999999999 Q 0.9390000000000001 0.8219999999999998 0.9390000000000001 0.8264999999999999 L 0.9165 1.0185 Q 0.9135 1.0365 0.9097500000000001 1.04175 Q 0.906 1.047 0.8925000000000001 1.053 Q 0.762 1.1055 0.615 1.1055 Q 0.432 1.1055 0.3105 1.0327499999999998 Q 0.189 0.96 0.13125 0.8474999999999999 Q 0.0735 0.7349999999999999 0.0735 0.6134999999999999 Q 0.0735 0.4724999999999999 0.15075 0.3629999999999999 Q 0.228 0.25349999999999995 0.3555 0.1934999999999999 Q 0.483 0.13349999999999984 0.6285000000000001 0.13349999999999984 Q 0.6960000000000001 0.13349999999999984 0.76875 0.14549999999999985 M 1.195509521484375 1.06425 Q 1.126509521484375 1.0214999999999999 1.089009521484375 0.9487499999999999 Q 1.051509521484375 0.8759999999999999 1.051509521484375 0.7905 Q 1.051509521484375 0.6929999999999998 1.100259521484375 0.6247499999999999 Q 1.149009521484375 0.5564999999999999 1.224759521484375 0.5227499999999999 Q 1.300509521484375 0.4889999999999999 1.380009521484375 0.4889999999999999 Q 1.471509521484375 0.4889999999999999 1.539759521484375 0.5324999999999999 Q 1.6080095214843748 0.5759999999999998 1.6440095214843748 0.6472499999999999 Q 1.6800095214843749 0.7184999999999999 1.6800095214843749 0.7994999999999999 Q 1.6800095214843749 0.8895 1.635759521484375 0.96 Q 1.591509521484375 1.0305 1.516509521484375 1.0687499999999999 Q 1.441509521484375 1.107 1.354509521484375 1.107 Q 1.264509521484375 1.107 1.195509521484375 1.06425 M 1.500759521484375 1.0185 Q 1.536009521484375 0.96 1.536009521484375 0.8474999999999999 Q 1.536009521484375 0.7469999999999999 1.508259521484375 0.6719999999999999 Q 1.4805095214843749 0.597 1.4332595214843749 0.5579999999999999 Q 1.3860095214843748 0.5189999999999999 1.330509521484375 0.5189999999999999 Q 1.263009521484375 0.5189999999999999 1.2285095214843749 0.5744999999999999 Q 1.194009521484375 0.6299999999999999 1.194009521484375 0.7379999999999999 Q 1.194009521484375 0.8354999999999999 1.220259521484375 0.91275 Q 1.2465095214843749 0.9899999999999999 1.293759521484375 1.0334999999999999 Q 1.341009521484375 1.077 1.399509521484375 1.077 Q 1.465509521484375 1.077 1.500759521484375 1.0185 M 2.4855439453125 0.9944999999999999 Q 2.4900439453125 0.9944999999999999 2.4937939453125 1.002 Q 2.4975439453124997 1.0094999999999998 2.4930439453125 1.011 L 2.3010439453125 1.1039999999999999 L 2.2920439453125 1.1055 Q 2.2770439453124998 1.1055 2.2642939453124997 1.0755 Q 2.2515439453125 1.0454999999999999 2.2500439453125 0.9944999999999999 Q 2.1960439453125 1.0454999999999999 2.1390439453125 1.07625 Q 2.0820439453125 1.107 2.0145439453125 1.107 Q 1.9500439453124998 1.107 1.8960439453125 1.07175 Q 1.8420439453125 1.0365 1.8105439453124998 0.9704999999999999 Q 1.7790439453125 0.9044999999999999 1.7790439453125 0.8159999999999998 Q 1.7790439453125 0.7049999999999998 1.8315439453125 0.6315 Q 1.8840439453125 0.5579999999999999 1.9635439453124999 0.5234999999999999 Q 2.0430439453124998 0.4889999999999999 2.1225439453124997 0.4889999999999999 Q 2.1885439453125 0.4889999999999999 2.2485439453125 0.5129999999999999 L 2.2485439453125 0.1994999999999999 Q 2.2485439453125 0.1469999999999999 2.2387939453124996 0.12374999999999992 Q 2.2290439453124997 0.10049999999999992 2.2035439453125 0.10049999999999992 Q 2.1870439453125 0.10049999999999992 2.1435439453125 0.11849999999999994 L 2.1405439453125 0.11849999999999994 Q 2.1345439453125 0.11849999999999994 2.1315439453125 0.11099999999999988 Q 2.1285439453125 0.10349999999999993 2.1315439453125 0.10199999999999987 L 2.3430439453125 0.0014999999999998348 L 2.3490439453125 -2.220446049250313e-16 Q 2.3550439453125 -2.220446049250313e-16 2.3625439453125 0.005999999999999783 Q 2.3700439453124997 0.011999999999999789 2.3700439453124997 0.01649999999999996 L 2.3700439453124997 0.9164999999999999 Q 2.3700439453124997 0.9689999999999999 2.3805439453124997 0.9907499999999999 Q 2.3910439453125 1.0125 2.4165439453125 1.0125 Q 2.4465439453125 1.0125 2.4840439453125 0.9944999999999999 L 2.4855439453125 0.9944999999999999 M 2.1712939453124998 1.0214999999999999 Q 2.2095439453125 1.002 2.2485439453125 0.966 L 2.2485439453125 0.9644999999999999 L 2.2485439453125 0.6074999999999999 Q 2.2185439453124998 0.5654999999999999 2.1817939453124997 0.5452499999999999 Q 2.1450439453125 0.5249999999999999 2.0940439453125 0.5249999999999999 Q 2.0085439453125 0.5249999999999999 1.9620439453124998 0.5842499999999999 Q 1.9155439453124998 0.6435 1.9155439453124998 0.7694999999999999 Q 1.9155439453124998 0.8955 1.9642939453125 0.9682499999999999 Q 2.0130439453125 1.041 2.0895439453124998 1.041 Q 2.1330439453125 1.041 2.1712939453124998 1.0214999999999999 M 2.6377734375 0.31499999999999995 Q 2.6160234375 0.29399999999999993 2.6160234375 0.2549999999999999 Q 2.6160234375 0.21749999999999992 2.6377734375 0.19724999999999993 Q 2.6595234375 0.17699999999999994 2.6985234375 0.17699999999999994 Q 2.7360234374999997 0.17699999999999994 2.7570234375 0.19724999999999993 Q 2.7780234375 0.21749999999999992 2.7780234375 0.2549999999999999 Q 2.7780234375 0.29399999999999993 2.7577734375 0.31499999999999995 Q 2.7375234374999997 0.33599999999999985 2.6985234375 0.33599999999999985 Q 2.6595234375 0.33599999999999985 2.6377734375 0.31499999999999995 M 2.5560234375 1.0785 Q 2.5560234375 1.0695 2.5605234374999997 1.0695 Q 2.6115234375 1.0695 2.6280234375 1.0485 Q 2.6445234374999997 1.0274999999999999 2.6445234374999997 0.966 L 2.6445234374999997 0.6929999999999998 Q 2.6445234374999997 0.6419999999999999 2.6340234375 0.6187499999999999 Q 2.6235234375 0.5954999999999999 2.5980234374999998 0.5954999999999999 Q 2.5755234375 0.5954999999999999 2.5395234374999998 0.6134999999999999 L 2.5380234374999997 0.6134999999999999 Q 2.5320234375 0.6134999999999999 2.5290234375 0.6059999999999999 Q 2.5260234374999997 0.5984999999999999 2.5305234375 0.5954999999999999 L 2.7465234374999996 0.4949999999999999 L 2.7510234375 0.49349999999999994 Q 2.7570234375 0.49349999999999994 2.7637734375 0.5002499999999999 Q 2.7705234374999996 0.5069999999999999 2.7705234374999996 0.5114999999999998 L 2.7705234374999996 0.5429999999999999 Q 2.7675234375 0.6059999999999999 2.7675234375 0.6914999999999999 L 2.7675234375 0.966 Q 2.7675234375 1.0274999999999999 2.7847734374999997 1.0485 Q 2.8020234375 1.0695 2.8530234374999996 1.0695 Q 2.8575234375 1.0695 2.8575234375 1.0785 Q 2.8575234375 1.0875 2.8530234374999996 1.0875 Q 2.8155234375 1.0875 2.7930234374999996 1.0859999999999999 L 2.7060234375 1.0845 L 2.6190234374999997 1.0859999999999999 Q 2.5980234374999998 1.0875 2.5605234374999997 1.0875 Q 2.5560234375 1.0875 2.5560234375 1.0785 M 3.6525102539062497 1.0785 Q 3.6525102539062497 1.0875 3.64801025390625 1.0875 Q 3.61051025390625 1.0875 3.5895102539062496 1.0859999999999999 L 3.50251025390625 1.0845 L 3.4170102539062497 1.0859999999999999 Q 3.3945102539062497 1.0875 3.3570102539062496 1.0875 Q 3.35251025390625 1.0875 3.35251025390625 1.0785 Q 3.35251025390625 1.0695 3.3570102539062496 1.0695 Q 3.40801025390625 1.0695 3.4245102539062495 1.0485 Q 3.4410102539062497 1.0274999999999999 3.4410102539062497 0.966 L 3.4410102539062497 0.7409999999999999 Q 3.4410102539062497 0.6569999999999999 3.41026025390625 0.6172499999999999 Q 3.3795102539062496 0.5774999999999999 3.3135102539062498 0.5774999999999999 Q 3.2745102539062496 0.5774999999999999 3.23401025390625 0.5954999999999999 Q 3.1935102539062497 0.6134999999999999 3.1605102539062497 0.6435 L 3.1605102539062497 0.966 Q 3.1605102539062497 1.0274999999999999 3.17701025390625 1.0485 Q 3.1935102539062497 1.0695 3.24451025390625 1.0695 Q 3.24901025390625 1.0695 3.24901025390625 1.0785 Q 3.24901025390625 1.0875 3.24451025390625 1.0875 Q 3.2070102539062497 1.0875 3.18601025390625 1.0859999999999999 L 3.0990102539062496 1.0845 L 3.01201025390625 1.0859999999999999 Q 2.99101025390625 1.0875 2.95351025390625 1.0875 Q 2.9490102539062497 1.0875 2.9490102539062497 1.0785 Q 2.9490102539062497 1.0695 2.95351025390625 1.0695 Q 3.0045102539062496 1.0695 3.0210102539062498 1.0485 Q 3.03751025390625 1.0274999999999999 3.03751025390625 0.966 L 3.03751025390625 0.6794999999999999 Q 3.03751025390625 0.6315 3.02626025390625 0.6089999999999999 Q 3.01501025390625 0.5864999999999999 2.98951025390625 0.5864999999999999 Q 2.96701025390625 0.5864999999999999 2.9145102539062497 0.6089999999999999 L 2.9130102539062497 0.6089999999999999 Q 2.90701025390625 0.6089999999999999 2.90401025390625 0.6014999999999999 Q 2.9010102539062497 0.5939999999999999 2.90551025390625 0.5924999999999999 L 3.1020102539062497 0.49649999999999994 Q 3.1110102539062496 0.49349999999999994 3.1125102539062497 0.49349999999999994 Q 3.12751025390625 0.49349999999999994 3.14326025390625 0.5272499999999999 Q 3.1590102539062497 0.5609999999999999 3.1605102539062497 0.6149999999999999 Q 3.2655102539062497 0.49049999999999994 3.38851025390625 0.49049999999999994 Q 3.4710102539062495 0.49049999999999994 3.51751025390625 0.54075 Q 3.56401025390625 0.591 3.56401025390625 0.6764999999999999 L 3.56401025390625 0.966 Q 3.56401025390625 1.0274999999999999 3.5805102539062497 1.0485 Q 3.59701025390625 1.0695 3.64801025390625 1.0695 Q 3.6525102539062497 1.0695 3.6525102539062497 1.0785 M 4.275025634765624 0.49049999999999994 Q 4.2780256347656245 0.49049999999999994 4.281775634765625 0.4927499999999999 Q 4.285525634765625 0.4949999999999999 4.285525634765625 0.4979999999999999 L 4.285525634765625 1.1925 Q 4.285525634765625 1.335 4.203775634765625 1.422 Q 4.122025634765625 1.509 3.9735256347656245 1.509 Q 3.877525634765625 1.509 3.8160256347656247 1.4782499999999998 Q 3.7545256347656246 1.4474999999999998 3.7545256347656246 1.395 Q 3.7545256347656246 1.3605 3.774025634765625 1.3439999999999999 Q 3.7935256347656248 1.3275 3.820525634765625 1.3275 Q 3.8565256347656245 1.3275 3.8752756347656248 1.34475 Q 3.8940256347656246 1.3619999999999999 3.912025634765625 1.3964999999999999 Q 3.934525634765625 1.4369999999999998 3.959275634765625 1.45725 Q 3.984025634765625 1.4775 4.033525634765625 1.4775 Q 4.093525634765625 1.4775 4.128775634765625 1.4235 Q 4.164025634765625 1.3695 4.164025634765625 1.2285 L 4.164025634765625 0.9989999999999999 Q 4.113025634765624 1.0485 4.061275634765625 1.077 Q 4.009525634765625 1.1055 3.946525634765625 1.1055 Q 3.8865256347656247 1.1055 3.8355256347656246 1.0747499999999999 Q 3.784525634765625 1.0439999999999998 3.7545256347656246 0.9847499999999999 Q 3.724525634765625 0.9254999999999999 3.724525634765625 0.843 Q 3.724525634765625 0.7364999999999999 3.774775634765625 0.6562499999999999 Q 3.8250256347656246 0.5759999999999998 3.9052756347656246 0.5332499999999999 Q 3.985525634765625 0.49049999999999994 4.072525634765625 0.49049999999999994 Q 4.156525634765624 0.49049999999999994 4.218025634765625 0.5309999999999999 Q 4.249525634765625 0.5159999999999999 4.270525634765625 0.4919999999999999 Q 4.272025634765624 0.49049999999999994 4.275025634765624 0.49049999999999994 M 4.164025634765625 0.9719999999999999 L 4.164025634765625 0.6524999999999999 Q 4.164025634765625 0.5954999999999999 4.126525634765625 0.5579999999999999 Q 4.089025634765624 0.5204999999999999 4.033525634765625 0.5204999999999999 Q 3.9555256347656247 0.5204999999999999 3.9082756347656247 0.597 Q 3.8610256347656247 0.6734999999999999 3.8610256347656247 0.7949999999999999 Q 3.8610256347656247 0.9075 3.902275634765625 0.9719999999999999 Q 3.9435256347656247 1.0365 4.015525634765625 1.0365 Q 4.081525634765625 1.0365 4.164025634765625 0.9719999999999999" fill="#fece00" fill-rule="nonzero"></path></g><g><path d=" M 0.34725 2.0485124999999997 Q 0.34725 2.0507625 0.343125 2.0511375 Q 0.339 2.0515125 0.33825 2.0492624999999998 Q 0.333 2.0080125 0.309 1.9866374999999998 Q 0.28500000000000003 1.9652625 0.246 1.9652625 L 0.20775000000000002 1.9652625 Q 0.17550000000000002 1.9652625 0.163875 1.9742624999999998 Q 0.15225 1.9832625 0.15225 2.0087625 L 0.15225 2.1722625 L 0.22125 2.1722625 Q 0.26175 2.1722625 0.280875 2.1587625 Q 0.3 2.1452625 0.3 2.1182624999999997 Q 0.3 2.1167625 0.3045 2.1167625 Q 0.309 2.1167625 0.309 2.1182624999999997 L 0.30825 2.1812625 Q 0.30825 2.2037625 0.309 2.2150125 L 0.30975 2.2525125 Q 0.30975 2.2540125 0.30525 2.2540125 Q 0.30075 2.2540125 0.30075 2.2525125 Q 0.30075 2.2202625 0.28125 2.2048875 Q 0.26175 2.1895124999999998 0.219 2.1895124999999998 L 0.15225 2.1895124999999998 L 0.15225 2.3522624999999997 Q 0.15225 2.3762624999999997 0.15862500000000002 2.3871374999999997 Q 0.165 2.3980125 0.183 2.4025125 Q 0.201 2.4070125 0.24 2.4070125 Q 0.2415 2.4070125 0.2415 2.4115124999999997 Q 0.2415 2.4160125 0.24 2.4160125 Q 0.20925 2.4160125 0.192 2.4152625 L 0.1215 2.4145125 L 0.069 2.4152625 Q 0.05475 2.4160125 0.02925 2.4160125 Q 0.02775 2.4160125 0.02775 2.4115124999999997 Q 0.02775 2.4070125 0.02925 2.4070125 Q 0.057 2.4070125 0.070125 2.4032625 Q 0.08325 2.3995124999999997 0.08775000000000001 2.3886374999999997 Q 0.09225 2.3777625 0.09225 2.3552625 L 0.09225 2.0080125 Q 0.09225 1.9855125 0.08775000000000001 1.9750124999999998 Q 0.08325 1.9645124999999999 0.07087500000000001 1.9603875 Q 0.0585 1.9562624999999998 0.03225 1.9562624999999998 Q 0.03 1.9562624999999998 0.03 1.9517624999999998 Q 0.03 1.9472625 0.03225 1.9472625 L 0.33825 1.9472625 Q 0.34575 1.9472625 0.34575 1.9540125 L 0.34725 2.0485124999999997 M 0.4612503662109374 2.0267625 Q 0.45112536621093746 2.0170125 0.45112536621093746 1.9997624999999999 Q 0.45112536621093746 1.9832625 0.4612503662109374 1.9738875 Q 0.47137536621093745 1.9645124999999999 0.48862536621093744 1.9645124999999999 Q 0.5051253662109374 1.9645124999999999 0.5145003662109374 1.9738875 Q 0.5238753662109374 1.9832625 0.5238753662109374 1.9997624999999999 Q 0.5238753662109374 2.0170125 0.5145003662109374 2.0267625 Q 0.5051253662109374 2.0365124999999997 0.48862536621093744 2.0365124999999997 Q 0.47137536621093745 2.0365124999999997 0.4612503662109374 2.0267625 M 0.4203753662109374 2.4115124999999997 Q 0.4203753662109374 2.4070125 0.42262536621093744 2.4070125 Q 0.4496253662109374 2.4070125 0.4586253662109374 2.3968875 Q 0.4676253662109374 2.3867624999999997 0.4676253662109374 2.3552625 L 0.4676253662109374 2.2172625 Q 0.4676253662109374 2.1902625 0.46237536621093744 2.1786375 Q 0.45712536621093747 2.1670125 0.44362536621093746 2.1670125 Q 0.4308753662109374 2.1670125 0.41137536621093745 2.1767624999999997 L 0.4106253662109374 2.1767624999999997 Q 0.4076253662109374 2.1767624999999997 0.4061253662109374 2.1726375 Q 0.4046253662109374 2.1685125 0.4076253662109374 2.1677625 L 0.5096253662109375 2.1205125 L 0.5126253662109375 2.1197624999999998 Q 0.5148753662109374 2.1197624999999998 0.5175003662109374 2.1220125 Q 0.5201253662109374 2.1242625 0.5201253662109374 2.1272625 Q 0.5201253662109374 2.1325125 0.5193753662109375 2.1572625 Q 0.5186253662109375 2.1820125 0.5186253662109375 2.2157625 L 0.5186253662109375 2.3552625 Q 0.5186253662109375 2.3867624999999997 0.5272503662109375 2.3968875 Q 0.5358753662109375 2.4070125 0.5636253662109374 2.4070125 Q 0.5658753662109375 2.4070125 0.5658753662109375 2.4115124999999997 Q 0.5658753662109375 2.4160125 0.5636253662109374 2.4160125 Q 0.5456253662109374 2.4160125 0.5343753662109374 2.4152625 L 0.49312536621093744 2.4145125 L 0.45187536621093743 2.4152625 Q 0.44062536621093745 2.4160125 0.42262536621093744 2.4160125 Q 0.4203753662109374 2.4160125 0.4203753662109374 2.4115124999999997 M 0.9667650146484374 2.4115124999999997 Q 0.9667650146484374 2.4160125 0.9645150146484374 2.4160125 Q 0.9465150146484373 2.4160125 0.9352650146484374 2.4152625 L 0.8940150146484374 2.4145125 L 0.8527650146484373 2.4152625 Q 0.8415150146484374 2.4160125 0.8235150146484373 2.4160125 Q 0.8212650146484374 2.4160125 0.8212650146484374 2.4115124999999997 Q 0.8212650146484374 2.4070125 0.8235150146484373 2.4070125 Q 0.8505150146484374 2.4070125 0.8591400146484374 2.3968875 Q 0.8677650146484374 2.3867624999999997 0.8677650146484374 2.3552625 L 0.8677650146484374 2.2382625 Q 0.8677650146484374 2.1947625 0.8520150146484373 2.1745125 Q 0.8362650146484374 2.1542624999999997 0.8017650146484374 2.1542624999999997 Q 0.7807650146484374 2.1542624999999997 0.7582650146484373 2.1647624999999997 Q 0.7357650146484374 2.1752625 0.7177650146484373 2.1940125 L 0.7177650146484373 2.3552625 Q 0.7177650146484373 2.3867624999999997 0.7263900146484373 2.3968875 Q 0.7350150146484373 2.4070125 0.7627650146484374 2.4070125 Q 0.7650150146484374 2.4070125 0.7650150146484374 2.4115124999999997 Q 0.7650150146484374 2.4160125 0.7627650146484374 2.4160125 Q 0.7447650146484374 2.4160125 0.7335150146484374 2.4152625 L 0.6922650146484374 2.4145125 L 0.6502650146484373 2.4152625 Q 0.6397650146484374 2.4160125 0.6217650146484374 2.4160125 Q 0.6195150146484374 2.4160125 0.6195150146484374 2.4115124999999997 Q 0.6195150146484374 2.4070125 0.6217650146484374 2.4070125 Q 0.6487650146484374 2.4070125 0.6573900146484374 2.3968875 Q 0.6660150146484374 2.3867624999999997 0.6660150146484374 2.3552625 L 0.6660150146484374 2.2090125 Q 0.6660150146484374 2.1842625 0.6603900146484374 2.1733875 Q 0.6547650146484374 2.1625125 0.6412650146484373 2.1625125 Q 0.6270150146484373 2.1625125 0.6015150146484374 2.1730125 L 0.6000150146484373 2.1730125 Q 0.5977650146484373 2.1730125 0.5966400146484374 2.1692625 Q 0.5955150146484374 2.1655124999999997 0.5977650146484373 2.1647624999999997 L 0.6907650146484374 2.1205125 Q 0.6922650146484374 2.1197624999999998 0.6952650146484374 2.1197624999999998 Q 0.7027650146484373 2.1197624999999998 0.7098900146484374 2.1366375 Q 0.7170150146484373 2.1535124999999997 0.7177650146484373 2.1805125 Q 0.7725150146484374 2.1167625 0.8325150146484374 2.1167625 Q 0.8737650146484374 2.1167625 0.8966400146484373 2.1411375 Q 0.9195150146484374 2.1655124999999997 0.9195150146484374 2.2090125 L 0.9195150146484374 2.3552625 Q 0.9195150146484374 2.3867624999999997 0.9281400146484373 2.3968875 Q 0.9367650146484374 2.4070125 0.9645150146484374 2.4070125 Q 0.9667650146484374 2.4070125 0.9667650146484374 2.4115124999999997 M 1.3601546630859374 2.3710125 Q 1.3624046630859374 2.3710125 1.3639046630859373 2.3747625 Q 1.3654046630859373 2.3785125 1.3631546630859372 2.3800125 L 1.2739046630859372 2.4227624999999997 Q 1.2694046630859372 2.4242624999999998 1.2686546630859374 2.4242624999999998 Q 1.2596546630859373 2.4242624999999998 1.2529046630859373 2.4085125 Q 1.2461546630859373 2.3927625 1.2454046630859372 2.3650124999999997 Q 1.2184046630859373 2.3927625 1.1891546630859373 2.4092625 Q 1.1599046630859373 2.4257625 1.1239046630859373 2.4257625 Q 1.0924046630859372 2.4257625 1.0654046630859373 2.4081375 Q 1.0384046630859374 2.3905125 1.0226546630859372 2.3575125 Q 1.0069046630859373 2.3245125 1.0069046630859373 2.2817624999999997 Q 1.0069046630859373 2.2270125 1.0331546630859374 2.1898874999999998 Q 1.0594046630859373 2.1527624999999997 1.0987796630859372 2.1347625 Q 1.1381546630859374 2.1167625 1.1779046630859373 2.1167625 Q 1.2124046630859373 2.1167625 1.2454046630859372 2.1325125 L 1.2454046630859372 1.9705125 Q 1.2454046630859372 1.9427625 1.2401546630859372 1.9311375 Q 1.2349046630859373 1.9195125 1.2214046630859372 1.9195125 Q 1.2116546630859373 1.9195125 1.1891546630859373 1.9300125 L 1.1884046630859373 1.9300125 Q 1.1854046630859374 1.9300125 1.1839046630859373 1.9262625 Q 1.1824046630859373 1.9225124999999998 1.1846546630859374 1.9210124999999998 L 1.2844046630859374 1.8730124999999997 Q 1.2859046630859372 1.8722624999999997 1.2881546630859373 1.8722624999999997 Q 1.2904046630859374 1.8722624999999997 1.2937796630859373 1.8745124999999998 Q 1.2971546630859372 1.8767625 1.2971546630859372 1.8797625 L 1.2971546630859372 2.3320125 Q 1.2971546630859372 2.3582625 1.3027796630859374 2.3698875 Q 1.3084046630859372 2.3815125 1.3219046630859372 2.3815125 Q 1.3391546630859372 2.3815125 1.3586546630859373 2.3717625 L 1.3601546630859374 2.3710125 M 1.2034046630859372 2.3841375 Q 1.2244046630859373 2.3725125 1.2454046630859372 2.3515125 L 1.2454046630859372 2.1797625 Q 1.2296546630859373 2.1572625 1.2090296630859374 2.1452625 Q 1.1884046630859373 2.1332625 1.1606546630859373 2.1332625 Q 1.1156546630859374 2.1332625 1.0901546630859373 2.1647624999999997 Q 1.0646546630859373 2.1962625 1.0646546630859373 2.2585124999999997 Q 1.0646546630859373 2.3215125 1.0905296630859374 2.3586375 Q 1.1164046630859372 2.3957625 1.1569046630859372 2.3957625 Q 1.1824046630859373 2.3957625 1.2034046630859372 2.3841375 M 1.7786791992187498 2.3725125 Q 1.7816791992187497 2.3725125 1.7831791992187498 2.3758874999999997 Q 1.7846791992187498 2.3792625 1.7824291992187498 2.3807625 Q 1.7546791992187498 2.4040125 1.7314291992187498 2.4145125 Q 1.7081791992187498 2.4250125 1.6826791992187498 2.4250125 Q 1.6511791992187497 2.4250125 1.6298041992187497 2.4103874999999997 Q 1.6084291992187498 2.3957625 1.6084291992187498 2.3612625 L 1.6084291992187498 2.1880124999999997 Q 1.6084291992187498 2.1617625 1.6013041992187498 2.1542624999999997 Q 1.5941791992187497 2.1467625 1.5694291992187497 2.1467625 Q 1.5671791992187498 2.1467625 1.5671791992187498 2.1407625 Q 1.5671791992187498 2.1355125 1.5694291992187497 2.1355125 Q 1.6024291992187498 2.1347625 1.6226791992187497 2.1193874999999998 Q 1.6429291992187498 2.1040125 1.6489291992187498 2.0770125 Q 1.6496791992187498 2.0747625 1.6549291992187498 2.0747625 Q 1.6601791992187498 2.0747625 1.6601791992187498 2.0770125 L 1.6601791992187498 2.1347625 Q 1.6969291992187499 2.1340125 1.7621791992187497 2.1272625 Q 1.7644291992187497 2.1272625 1.7659291992187498 2.1325125 Q 1.7674291992187499 2.1377625 1.7674291992187499 2.1445125 Q 1.7674291992187499 2.1512625 1.7651791992187498 2.1576375 Q 1.7629291992187497 2.1640125 1.7599291992187498 2.1632625 Q 1.7126791992187498 2.1535124999999997 1.6601791992187498 2.1520124999999997 L 1.6601791992187498 2.3357625 Q 1.6601791992187498 2.3657624999999998 1.6751791992187497 2.3803875 Q 1.6901791992187498 2.3950125 1.7179291992187498 2.3950125 Q 1.7509291992187497 2.3950125 1.7771791992187498 2.3732625 L 1.7786791992187498 2.3725125 M 2.160813720703125 2.4115124999999997 Q 2.160813720703125 2.4160125 2.1585637207031247 2.4160125 Q 2.139813720703125 2.4160125 2.129313720703125 2.4152625 L 2.0880637207031247 2.4145125 L 2.045313720703125 2.4152625 Q 2.034813720703125 2.4160125 2.0168137207031247 2.4160125 Q 2.0153137207031246 2.4160125 2.0153137207031246 2.4115124999999997 Q 2.0153137207031246 2.4070125 2.0168137207031247 2.4070125 Q 2.044563720703125 2.4070125 2.0531887207031247 2.3968875 Q 2.0618137207031246 2.3867624999999997 2.0618137207031246 2.3552625 L 2.0618137207031246 2.2397625 Q 2.0618137207031246 2.1962625 2.045688720703125 2.1756374999999997 Q 2.0295637207031247 2.1550124999999998 1.9958137207031248 2.1550124999999998 Q 1.9740637207031249 2.1550124999999998 1.951563720703125 2.1658874999999997 Q 1.929063720703125 2.1767624999999997 1.911063720703125 2.1955125 L 1.911063720703125 2.3552625 Q 1.911063720703125 2.3867624999999997 1.9200637207031248 2.3968875 Q 1.929063720703125 2.4070125 1.9568137207031249 2.4070125 Q 1.9590637207031247 2.4070125 1.9590637207031247 2.4115124999999997 Q 1.9590637207031247 2.4160125 1.9568137207031249 2.4160125 Q 1.9380637207031248 2.4160125 1.9275637207031249 2.4152625 L 1.8863137207031249 2.4145125 L 1.8435637207031248 2.4152625 Q 1.8330637207031248 2.4160125 1.8150637207031248 2.4160125 Q 1.8135637207031248 2.4160125 1.8135637207031248 2.4115124999999997 Q 1.8135637207031248 2.4070125 1.8150637207031248 2.4070125 Q 1.8428137207031248 2.4070125 1.8514387207031249 2.3968875 Q 1.8600637207031248 2.3867624999999997 1.8600637207031248 2.3552625 L 1.8600637207031248 1.9697624999999999 Q 1.8600637207031248 1.9427625 1.8551887207031248 1.9311375 Q 1.8503137207031248 1.9195125 1.8375637207031248 1.9195125 Q 1.8240637207031247 1.9195125 1.8045637207031249 1.9292624999999999 L 1.8030637207031248 1.9292624999999999 Q 1.8008137207031247 1.9292624999999999 1.799313720703125 1.9255125 Q 1.7978137207031248 1.9217624999999998 1.8000637207031247 1.9210124999999998 L 1.9005637207031247 1.8722624999999997 L 1.9028137207031248 1.8722624999999997 Q 1.9058137207031247 1.8722624999999997 1.9084387207031248 1.8745124999999998 Q 1.911063720703125 1.8767625 1.911063720703125 1.8797625 L 1.911063720703125 2.1812625 Q 1.9658137207031248 2.1182624999999997 2.0265637207031246 2.1182624999999997 Q 2.067813720703125 2.1182624999999997 2.090313720703125 2.1422624999999997 Q 2.112813720703125 2.1662624999999998 2.112813720703125 2.2105125 L 2.112813720703125 2.3552625 Q 2.112813720703125 2.3867624999999997 2.1218137207031247 2.3968875 Q 2.1308137207031246 2.4070125 2.1585637207031247 2.4070125 Q 2.160813720703125 2.4070125 2.160813720703125 2.4115124999999997 M 2.4529493408203122 2.3717625 Q 2.4551993408203123 2.3717625 2.4570743408203124 2.3743875 Q 2.4589493408203125 2.3770124999999998 2.4574493408203124 2.3792625 Q 2.4311993408203123 2.4032625 2.403824340820312 2.4141375 Q 2.3764493408203125 2.4250125 2.344949340820312 2.4250125 Q 2.299949340820312 2.4250125 2.2673243408203123 2.4051375 Q 2.2346993408203124 2.3852625 2.217824340820312 2.3522624999999997 Q 2.2009493408203125 2.3192625 2.2009493408203125 2.2810125 Q 2.2009493408203125 2.2367624999999998 2.2223243408203124 2.1996374999999997 Q 2.2436993408203123 2.1625125 2.2815743408203124 2.1411375 Q 2.3194493408203125 2.1197624999999998 2.3651993408203125 2.1197624999999998 Q 2.4071993408203123 2.1197624999999998 2.4304493408203123 2.1396375 Q 2.4536993408203123 2.1595125 2.4536993408203123 2.1940125 Q 2.4536993408203123 2.2127624999999997 2.4454493408203124 2.2127624999999997 L 2.4094493408203124 2.2127624999999997 L 2.2616993408203125 2.2142625 Q 2.2586993408203124 2.2292625 2.2586993408203124 2.2510125 Q 2.2586993408203124 2.3155125 2.2898243408203123 2.3552625 Q 2.320949340820312 2.3950125 2.3756993408203124 2.3950125 Q 2.4191993408203123 2.3950125 2.452199340820312 2.3717625 L 2.4529493408203122 2.3717625 M 2.2916993408203123 2.1523874999999997 Q 2.2721993408203125 2.1700125 2.263949340820312 2.2022625 L 2.392949340820312 2.1992624999999997 Q 2.392199340820312 2.1692625 2.3779493408203125 2.1520124999999997 Q 2.3636993408203124 2.1347625 2.3389493408203124 2.1347625 Q 2.311199340820312 2.1347625 2.2916993408203123 2.1523874999999997 M 3.0237139892578124 2.3702625 Q 3.0259639892578125 2.3702625 3.0270889892578126 2.3740125 Q 3.0282139892578126 2.3777625 3.0259639892578125 2.3785125 L 2.9337139892578126 2.4235124999999997 Q 2.9322139892578125 2.4242624999999998 2.9299639892578124 2.4242624999999998 Q 2.923963989257812 2.4242624999999998 2.9175889892578124 2.4077625 Q 2.9112139892578126 2.3912625 2.9097139892578125 2.3657624999999998 Q 2.8834639892578124 2.3927625 2.8564639892578123 2.4085125 Q 2.8294639892578126 2.4242624999999998 2.7964639892578123 2.4242624999999998 Q 2.7499639892578123 2.4242624999999998 2.7184639892578124 2.3901375 Q 2.6869639892578125 2.3560125 2.6869639892578125 2.2945124999999997 Q 2.6869639892578125 2.2405125 2.7120889892578126 2.2000124999999997 Q 2.7372139892578122 2.1595125 2.7765889892578124 2.1381375 Q 2.8159639892578125 2.1167625 2.8572139892578123 2.1167625 Q 2.8969639892578125 2.1167625 2.9299639892578124 2.1385125 Q 2.9449639892578126 2.1310124999999998 2.9532139892578124 2.1190124999999997 Q 2.9539639892578125 2.1182624999999997 2.9554639892578125 2.1182624999999997 Q 2.9569639892578126 2.1182624999999997 2.9588389892578126 2.1193874999999998 Q 2.9607139892578123 2.1205125 2.9607139892578123 2.1212625 L 2.9607139892578123 2.3357625 Q 2.9607139892578123 2.3597625 2.9663389892578125 2.3702625 Q 2.9719639892578122 2.3807625 2.9854639892578123 2.3807625 Q 2.9952139892578122 2.3807625 3.0222139892578124 2.3710125 L 3.0237139892578124 2.3702625 M 2.9097139892578125 2.3530124999999997 L 2.9097139892578125 2.1970125 Q 2.9097139892578125 2.1692625 2.8887139892578126 2.1505125 Q 2.8677139892578123 2.1317625 2.8384639892578125 2.1317625 Q 2.7964639892578123 2.1317625 2.7709639892578126 2.1707625 Q 2.7454639892578125 2.2097625 2.7454639892578125 2.2712624999999997 Q 2.7454639892578125 2.3275125 2.7668389892578125 2.3608875 Q 2.7882139892578124 2.3942625 2.8257139892578125 2.3942625 Q 2.8654639892578126 2.3942625 2.9097139892578125 2.3530124999999997 M 3.4065816650390626 2.4115124999999997 Q 3.4065816650390626 2.4160125 3.4043316650390625 2.4160125 Q 3.3863316650390622 2.4160125 3.3750816650390627 2.4152625 L 3.3338316650390625 2.4145125 L 3.2925816650390622 2.4152625 Q 3.2813316650390627 2.4160125 3.2633316650390625 2.4160125 Q 3.2610816650390624 2.4160125 3.2610816650390624 2.4115124999999997 Q 3.2610816650390624 2.4070125 3.2633316650390625 2.4070125 Q 3.2903316650390626 2.4070125 3.2989566650390625 2.3968875 Q 3.3075816650390624 2.3867624999999997 3.3075816650390624 2.3552625 L 3.3075816650390624 2.2382625 Q 3.3075816650390624 2.1947625 3.2918316650390627 2.1745125 Q 3.2760816650390625 2.1542624999999997 3.2415816650390625 2.1542624999999997 Q 3.2205816650390626 2.1542624999999997 3.1980816650390627 2.1647624999999997 Q 3.1755816650390623 2.1752625 3.1575816650390625 2.1940125 L 3.1575816650390625 2.3552625 Q 3.1575816650390625 2.3867624999999997 3.1662066650390623 2.3968875 Q 3.1748316650390627 2.4070125 3.2025816650390624 2.4070125 Q 3.2048316650390625 2.4070125 3.2048316650390625 2.4115124999999997 Q 3.2048316650390625 2.4160125 3.2025816650390624 2.4160125 Q 3.1845816650390626 2.4160125 3.1733316650390626 2.4152625 L 3.1320816650390624 2.4145125 L 3.0900816650390626 2.4152625 Q 3.0795816650390626 2.4160125 3.0615816650390624 2.4160125 Q 3.0593316650390623 2.4160125 3.0593316650390623 2.4115124999999997 Q 3.0593316650390623 2.4070125 3.0615816650390624 2.4070125 Q 3.0885816650390625 2.4070125 3.0972066650390624 2.3968875 Q 3.1058316650390623 2.3867624999999997 3.1058316650390623 2.3552625 L 3.1058316650390623 2.2090125 Q 3.1058316650390623 2.1842625 3.1002066650390625 2.1733875 Q 3.0945816650390623 2.1625125 3.0810816650390627 2.1625125 Q 3.0668316650390626 2.1625125 3.0413316650390625 2.1730125 L 3.0398316650390624 2.1730125 Q 3.0375816650390624 2.1730125 3.0364566650390623 2.1692625 Q 3.0353316650390623 2.1655124999999997 3.0375816650390624 2.1647624999999997 L 3.1305816650390623 2.1205125 Q 3.1320816650390624 2.1197624999999998 3.1350816650390625 2.1197624999999998 Q 3.1425816650390623 2.1197624999999998 3.1497066650390626 2.1366375 Q 3.1568316650390624 2.1535124999999997 3.1575816650390625 2.1805125 Q 3.2123316650390623 2.1167625 3.2723316650390624 2.1167625 Q 3.3135816650390626 2.1167625 3.3364566650390626 2.1411375 Q 3.3593316650390626 2.1655124999999997 3.3593316650390626 2.2090125 L 3.3593316650390626 2.3552625 Q 3.3593316650390626 2.3867624999999997 3.3679566650390624 2.3968875 Q 3.3765816650390623 2.4070125 3.4043316650390625 2.4070125 Q 3.4065816650390626 2.4070125 3.4065816650390626 2.4115124999999997 M 3.5168463134765626 2.2097625 Q 3.5337213134765624 2.2255125 3.5652213134765627 2.2420125 Q 3.5922213134765624 2.2562625 3.6068463134765625 2.2663875 Q 3.6214713134765626 2.2765125 3.6319713134765625 2.2922625 Q 3.6424713134765625 2.3080125 3.6424713134765625 2.3312625 Q 3.6424713134765625 2.3695125 3.6135963134765623 2.3968875 Q 3.5847213134765625 2.4242624999999998 3.5344713134765624 2.4242624999999998 Q 3.4954713134765627 2.4242624999999998 3.4609713134765627 2.4025125 Q 3.4564713134765626 2.3980125 3.4564713134765626 2.3935125 L 3.4549713134765625 2.3297624999999997 Q 3.4549713134765625 2.3275125 3.4590963134765627 2.3271375 Q 3.4632213134765624 2.3267625 3.4639713134765624 2.3290124999999997 Q 3.4774713134765625 2.3665125 3.5018463134765625 2.3882624999999997 Q 3.5262213134765625 2.4100125 3.5562213134765623 2.4100125 Q 3.5772213134765627 2.4100125 3.5888463134765627 2.3995124999999997 Q 3.6004713134765627 2.3890124999999998 3.6004713134765627 2.3687625 Q 3.6004713134765627 2.3477625 3.5914713134765623 2.3331375 Q 3.5824713134765624 2.3185124999999998 3.5693463134765624 2.3098875 Q 3.5562213134765623 2.3012625 3.5337213134765624 2.2892625 Q 3.5089713134765623 2.2772625 3.4943463134765627 2.2675125 Q 3.4797213134765625 2.2577625 3.4695963134765626 2.2420125 Q 3.4594713134765627 2.2262625 3.4594713134765627 2.2022625 Q 3.4594713134765627 2.1602625 3.4902213134765625 2.1388875 Q 3.5209713134765623 2.1175125 3.5637213134765626 2.1175125 Q 3.5929713134765624 2.1175125 3.6207213134765626 2.1287624999999997 Q 3.6274713134765624 2.1310124999999998 3.6274713134765624 2.1370125 Q 3.6274713134765624 2.1535124999999997 3.6267213134765623 2.1625125 L 3.6259713134765628 2.1962625 Q 3.6259713134765628 2.1977625 3.6214713134765626 2.1977625 Q 3.6169713134765624 2.1977625 3.6169713134765624 2.1962625 Q 3.6169713134765624 2.1812625 3.6049713134765624 2.1662624999999998 Q 3.5929713134765624 2.1512625 3.5745963134765626 2.1418874999999997 Q 3.5562213134765623 2.1325125 3.5374713134765625 2.1325125 Q 3.5202213134765623 2.1325125 3.5100963134765624 2.1411375 Q 3.4999713134765624 2.1497625 3.4999713134765624 2.1692625 Q 3.4999713134765624 2.1940125 3.5168463134765626 2.2097625 M 4.181355834960938 2.1310124999999998 Q 4.181355834960938 2.1355125 4.179105834960938 2.1355125 Q 4.159605834960938 2.1355125 4.144980834960937 2.1490125 Q 4.1303558349609375 2.1625125 4.117605834960938 2.1947625 L 4.032105834960937 2.4152625 Q 4.031355834960937 2.4182625 4.023855834960938 2.4182625 Q 4.017105834960938 2.4182625 4.014855834960938 2.4152625 L 3.9158558349609374 2.2015124999999998 L 3.8386058349609375 2.4152625 Q 3.8378558349609375 2.4182625 3.8303558349609377 2.4182625 Q 3.8236058349609374 2.4182625 3.8213558349609373 2.4152625 L 3.7238558349609376 2.1887624999999997 Q 3.7103558349609376 2.1565125 3.6991058349609376 2.1460125 Q 3.6878558349609376 2.1355125 3.6721058349609375 2.1355125 Q 3.6698558349609374 2.1355125 3.6698558349609374 2.1310124999999998 Q 3.6698558349609374 2.1265125 3.6721058349609375 2.1265125 Q 3.6863558349609375 2.1265125 3.6946058349609374 2.1272625 L 3.7298558349609374 2.1280124999999996 L 3.7786058349609375 2.1272625 Q 3.7898558349609375 2.1265125 3.8093558349609378 2.1265125 Q 3.8116058349609374 2.1265125 3.8116058349609374 2.1310124999999998 Q 3.8116058349609374 2.1355125 3.8093558349609378 2.1355125 Q 3.7898558349609375 2.1355125 3.7789808349609375 2.1396375 Q 3.7681058349609375 2.1437625 3.7681058349609375 2.1535124999999997 Q 3.7681058349609375 2.1587625 3.7711058349609377 2.1647624999999997 L 3.8483558349609375 2.3402624999999997 L 3.9256058349609377 2.1265125 Q 3.9263558349609378 2.1235125 3.9338558349609376 2.1235125 Q 3.9413558349609374 2.1235125 3.9421058349609375 2.1265125 L 4.043355834960938 2.3440125 L 4.101105834960937 2.1917625 Q 4.1063558349609375 2.1760124999999997 4.1063558349609375 2.1685125 Q 4.1063558349609375 2.1355125 4.050855834960938 2.1355125 Q 4.049355834960938 2.1355125 4.049355834960938 2.1310124999999998 Q 4.049355834960938 2.1265125 4.050855834960938 2.1265125 Q 4.071105834960938 2.1265125 4.081605834960937 2.1272625 L 4.126605834960937 2.1280124999999996 L 4.1551058349609375 2.1272625 Q 4.162605834960938 2.1265125 4.179105834960938 2.1265125 Q 4.181355834960938 2.1265125 4.181355834960938 2.1310124999999998 M 4.457746215820312 2.3717625 Q 4.459996215820312 2.3717625 4.461871215820312 2.3743875 Q 4.463746215820312 2.3770124999999998 4.462246215820312 2.3792625 Q 4.435996215820312 2.4032625 4.408621215820312 2.4141375 Q 4.381246215820312 2.4250125 4.349746215820312 2.4250125 Q 4.3047462158203125 2.4250125 4.272121215820312 2.4051375 Q 4.239496215820312 2.3852625 4.222621215820312 2.3522624999999997 Q 4.205746215820312 2.3192625 4.205746215820312 2.2810125 Q 4.205746215820312 2.2367624999999998 4.227121215820312 2.1996374999999997 Q 4.248496215820312 2.1625125 4.286371215820312 2.1411375 Q 4.324246215820312 2.1197624999999998 4.369996215820312 2.1197624999999998 Q 4.411996215820312 2.1197624999999998 4.435246215820312 2.1396375 Q 4.458496215820312 2.1595125 4.458496215820312 2.1940125 Q 4.458496215820312 2.2127624999999997 4.450246215820312 2.2127624999999997 L 4.414246215820312 2.2127624999999997 L 4.266496215820312 2.2142625 Q 4.263496215820312 2.2292625 4.263496215820312 2.2510125 Q 4.263496215820312 2.3155125 4.294621215820312 2.3552625 Q 4.325746215820312 2.3950125 4.380496215820312 2.3950125 Q 4.4239962158203125 2.3950125 4.456996215820312 2.3717625 L 4.457746215820312 2.3717625 M 4.296496215820312 2.1523874999999997 Q 4.276996215820312 2.1700125 4.268746215820312 2.2022625 L 4.397746215820312 2.1992624999999997 Q 4.396996215820312 2.1692625 4.382746215820312 2.1520124999999997 Q 4.368496215820312 2.1347625 4.343746215820312 2.1347625 Q 4.315996215820312 2.1347625 4.296496215820312 2.1523874999999997 M 4.733379272460938 2.1298874999999997 Q 4.748379272460937 2.1400125 4.748379272460937 2.1542624999999997 Q 4.748379272460937 2.1655124999999997 4.740879272460937 2.1733875 Q 4.733379272460938 2.1812625 4.720629272460937 2.1812625 Q 4.713129272460937 2.1812625 4.7078792724609375 2.1786375 Q 4.702629272460937 2.1760124999999997 4.698879272460937 2.1726375 Q 4.695129272460937 2.1692625 4.693629272460937 2.1685125 Q 4.687629272460938 2.1625125 4.682004272460937 2.1591375 Q 4.676379272460937 2.1557625 4.668129272460937 2.1557625 Q 4.659129272460937 2.1557625 4.648629272460937 2.1628875 Q 4.6381292724609375 2.1700125 4.617129272460938 2.1940125 L 4.617129272460938 2.3552625 Q 4.617129272460938 2.3770124999999998 4.622754272460937 2.3878874999999997 Q 4.628379272460937 2.3987624999999997 4.643379272460937 2.4028875 Q 4.658379272460937 2.4070125 4.688379272460937 2.4070125 Q 4.690629272460937 2.4070125 4.690629272460937 2.4115124999999997 Q 4.690629272460937 2.4160125 4.688379272460937 2.4160125 Q 4.663629272460938 2.4160125 4.648629272460937 2.4152625 L 4.5916292724609375 2.4145125 L 4.549629272460937 2.4152625 Q 4.539129272460937 2.4160125 4.5211292724609375 2.4160125 Q 4.5188792724609375 2.4160125 4.5188792724609375 2.4115124999999997 Q 4.5188792724609375 2.4070125 4.5211292724609375 2.4070125 Q 4.548129272460937 2.4070125 4.556754272460937 2.3968875 Q 4.565379272460937 2.3867624999999997 4.565379272460937 2.3552625 L 4.565379272460937 2.2090125 Q 4.565379272460937 2.1842625 4.559754272460937 2.1733875 Q 4.554129272460937 2.1625125 4.540629272460937 2.1625125 Q 4.526379272460937 2.1625125 4.500879272460937 2.1730125 L 4.499379272460938 2.1730125 Q 4.4971292724609375 2.1730125 4.4960042724609375 2.1692625 Q 4.494879272460937 2.1655124999999997 4.4971292724609375 2.1647624999999997 L 4.5901292724609375 2.1205125 Q 4.5916292724609375 2.1197624999999998 4.594629272460937 2.1197624999999998 Q 4.602129272460937 2.1197624999999998 4.609254272460937 2.1362625 Q 4.616379272460938 2.1527624999999997 4.617129272460938 2.1797625 Q 4.647879272460937 2.1452625 4.666254272460937 2.1325125 Q 4.6846292724609375 2.1197624999999998 4.701129272460937 2.1197624999999998 Q 4.718379272460937 2.1197624999999998 4.733379272460938 2.1298874999999997" fill="#4271e8" fill-rule="nonzero"></path></g><g clip-path="url(#SvgjsClipPath1060)"><g clip-path="url(#be165e367-6d04-47dd-8a11-6fe5d148b7006a20208d-b6d4-4281-a491-25997b33407b)"><path d=" M 3.0286829368335493 -0.928488697675816 L 3.0286829368335493 -2.5462952321003955 C 3.0286829368335493 -2.576896678105167 3.0154889505485665 -2.601930604391736 2.9993638523089357 -2.601930604391736 L 2.4130418991526974 -2.601930604391736 C 2.396916800913067 -2.601930604391736 2.383726797117153 -2.576896678105167 2.383726797117153 -2.5462952321003955 L 2.383726797117153 -0.928488697675816 C 2.383726797117153 -0.8978872516710441 2.396916800913067 -0.8728493428954063 2.4130418991526974 -0.8728493428954063 L 2.9993638523089357 -0.8728493428954063 C 3.0154889505485665 -0.8728493428954063 3.0286829368335493 -0.8978872516710441 3.0286829368335493 -0.928488697675816" fill="#deddde" transform="matrix(1,0,0,1,0,0)" fill-rule="nonzero"></path></g><g clip-path="url(#be165e367-6d04-47dd-8a11-6fe5d148b7006a20208d-b6d4-4281-a491-25997b33407b)"><path d=" M 2.9410004750054566 -2.5027745915563884 L 2.4714052764561756 -2.5027745915563884 C 2.4625203433436504 -2.5027745915563884 2.4552523007930636 -2.5012373507758263 2.4552523007930636 -2.4993576159353457 L 2.4552523007930636 -2.431022086003555 C 2.4552523007930636 -2.4291423511630743 2.4625203433436504 -2.427605110382512 2.4714012939671073 -2.427605110382512 L 2.9410004750054566 -2.427605110382512 C 2.949885408117982 -2.427605110382512 2.9571494681795 -2.4291423511630743 2.9571494681795 -2.431022086003555 L 2.9571534506685686 -2.4993576159353457 C 2.9571534506685686 -2.5012373507758263 2.949885408117982 -2.5027745915563884 2.9410004750054566 -2.5027745915563884" fill="#444141" transform="matrix(1,0,0,1,0,0)" fill-rule="nonzero"></path></g><g clip-path="url(#be165e367-6d04-47dd-8a11-6fe5d148b7006a20208d-b6d4-4281-a491-25997b33407b)"><path d=" M 2.9410004750054566 -2.389703761914603 L 2.4714052764561756 -2.389703761914603 C 2.4625203433436504 -2.389703761914603 2.4552523007930636 -2.3872226712247313 2.4552523007930636 -2.3841880145542946 L 2.4552523007930636 -2.2739049272606793 C 2.4552523007930636 -2.270870270590242 2.4625203433436504 -2.268389179900371 2.4714012939671073 -2.268389179900371 L 2.9410004750054566 -2.268389179900371 C 2.9498814256289134 -2.268389179900371 2.9571494681795 -2.270870270590242 2.9571494681795 -2.2739049272606793 L 2.9571534506685686 -2.3841880145542946 C 2.9571534506685686 -2.3872226712247313 2.949885408117982 -2.389703761914603 2.9410004750054566 -2.389703761914603" fill="#444141" transform="matrix(1,0,0,1,0,0)" fill-rule="nonzero"></path></g><g clip-path="url(#be165e367-6d04-47dd-8a11-6fe5d148b7006a20208d-b6d4-4281-a491-25997b33407b)"><path d=" M 2.9410004750054566 -2.1996076111928726 L 2.4714052764561756 -2.1996155761710106 C 2.4625203433436504 -2.1996155761710106 2.4552523007930636 -2.1815868481564866 2.4552523007930636 -2.159551736138735 L 2.4552523007930636 -0.9835625390084541 C 2.4552523007930636 -0.9615274269907024 2.4625203433436504 -0.9434947164871099 2.4714012939671073 -0.9434947164871099 L 2.9410004750054566 -0.9434867515089722 C 2.9498814256289134 -0.9434867515089722 2.9571494681795 -0.9615154795234961 2.9571494681795 -0.9835505915412477 L 2.9571534506685686 -2.1595397886715286 C 2.9571534506685686 -2.18157490068928 2.949885408117982 -2.1996076111928726 2.9410004750054566 -2.1996076111928726" fill="#444141" transform="matrix(1,0,0,1,0,0)" fill-rule="nonzero"></path></g><g clip-path="url(#be165e367-6d04-47dd-8a11-6fe5d148b7006a20208d-b6d4-4281-a491-25997b33407b)"><path d=" M 0.6095518118946343 -0.8975766175236768 L 1.686767315140174 -0.8975766175236768 L 1.686767315140174 -0.9517663462830377 L 0.6095518118946343 -0.9517663462830377 Z M 0 -0.25 L 3.095043152187208 -0.25 L 3.095043152187208 -0.2697850056938713 L 0 -0.2697850056938713 Z M 0.9931053341121743 -0.9517663462830377 L 1.3032137929226342 -0.9517663462830377 L 1.3032137929226342 -1.3617556309393695 L 0.9931053341121743 -1.3617556309393695 Z" fill="#deddde" transform="matrix(1,0,0,1,0,0)" fill-rule="nonzero"></path></g><g clip-path="url(#be165e367-6d04-47dd-8a11-6fe5d148b7006a20208d-b6d4-4281-a491-25997b33407b)"><path d=" M 2.222428024852021 -2.5875697488095906 L 0.07389508467185571 -2.5875697488095906 C 0.03325378372460204 -2.5875697488095906 0 -2.554319947574057 0 -2.5136786466268033 L 0 -1.4323372847059717 C 0 -1.391695983758718 0.03325378372460231 -1.3584461825231844 0.07389508467185571 -1.3584461825231844 L 2.222428024852021 -1.3584461825231844 C 2.2630693257992744 -1.3584461825231844 2.2963191270348084 -1.391695983758718 2.2963191270348084 -1.4323372847059717 L 2.2963191270348084 -2.5136786466268033 C 2.2963191270348084 -2.554319947574057 2.2630693257992744 -2.5875697488095906 2.222428024852021 -2.5875697488095906" fill="#dcdbdb" transform="matrix(1,0,0,1,0,0)" fill-rule="nonzero"></path></g><g clip-path="url(#be165e367-6d04-47dd-8a11-6fe5d148b7006a20208d-b6d4-4281-a491-25997b33407b)"><path d=" M 0 -1.4871403167819301 L 0 -1.4323372847059717 C 0 -1.391695983758718 0.033253783724602415 -1.3584461825231844 0.07389508467185603 -1.3584461825231844 L 2.222428024852021 -1.3584461825231844 C 2.2630653433102057 -1.3584461825231844 2.296319127034808 -1.391695983758718 2.296319127034808 -1.4323372847059717 L 2.296319127034808 -1.4871323518037924 Z" fill="#deddde" transform="matrix(1,0,0,1,0,0)" fill-rule="nonzero"></path></g><g clip-path="url(#be165e367-6d04-47dd-8a11-6fe5d148b7006a20208d-b6d4-4281-a491-25997b33407b)"><path d=" M 0.06483492204030268 -2.512651164447049 L 0.06483492204030268 -1.4871403167819301 L 2.231480222505437 -1.4909913837114739 L 2.231480222505437 -2.512651164447049 Z" fill="#fef1a3" transform="matrix(1,0,0,1,0,0)" fill-rule="nonzero"></path></g><g clip-path="url(#be165e367-6d04-47dd-8a11-6fe5d148b7006a20208d-b6d4-4281-a491-25997b33407b)"><path d=" M 1.4638912968930304 -2.512651164447049 L 0.9382027398094953 -1.4871403167819301 L 2.231484204994506 -1.4909913837114739 L 2.231484204994506 -2.512651164447049 Z" fill="#f9a50d" transform="matrix(1,0,0,1,0,0)" fill-rule="nonzero"></path></g></g></g><defs><clipPath id="SvgjsClipPath1060"><path d=" M 0 -2.601930604391736 h 3.095043152187208 v 2.351930604391736 h -3.095043152187208 Z"></path></clipPath><clipPath id="be165e367-6d04-47dd-8a11-6fe5d148b7006a20208d-b6d4-4281-a491-25997b33407b"><path d=" M -0.00398248906881466 -2.6059130934605506 L 3.0990256412560226 -2.6059130934605506 L 3.0990256412560226 -0.2460175109311855 L -0.00398248906881466 -0.2460175109311855 Z"></path></clipPath></defs></svg>